HIERARCHY
ROOT hip
{
  OFFSET 0 90.174 2.4664
  CHANNELS 6 Xposition Yposition Zposition Zrotation Xrotation Yrotation
  JOINT abdomen
  {
    OFFSET 0 -1.186 -1.5018
    CHANNELS 6 Xposition Yposition Zposition Zrotation Xrotation Yrotation
    JOINT abdomen2
    {
      OFFSET 0 9.964 0.2134
      CHANNELS 6 Xposition Yposition Zposition Zrotation Xrotation Yrotation
      JOINT chest
      {
        OFFSET 0 13.134 -3.2573
        CHANNELS 6 Xposition Yposition Zposition Zrotation Xrotation Yrotation
        JOINT neck
        {
          OFFSET 0 20.686 -1.6905
          CHANNELS 6 Xposition Yposition Zposition Zrotation Xrotation Yrotation
          JOINT head
          {
            OFFSET 0 7.238 -0.1237
            CHANNELS 6 Xposition Yposition Zposition Zrotation Xrotation Yrotation
            End Site
            {
              OFFSET 0 0 0
            }
          }
        }
        JOINT lCollar
        {
          OFFSET 1.7069 20.075 5.0056
          CHANNELS 6 Xposition Yposition Zposition Zrotation Xrotation Yrotation
          JOINT lShldr
          {
            OFFSET 13.6458 -0.047 -4.849
            CHANNELS 6 Xposition Yposition Zposition Zrotation Xrotation Yrotation
            JOINT lForeArm
            {
              OFFSET 28.3255 -0.9759 2.2888
              CHANNELS 6 Xposition Yposition Zposition Zrotation Xrotation Yrotation
              JOINT lHand
              {
                OFFSET 22.1583 -0.53 10.8316
                CHANNELS 6 Xposition Yposition Zposition Zrotation Xrotation Yrotation
                JOINT lThumb1
                {
                  OFFSET 0.786 0.112 2.5817
                  CHANNELS 6 Xposition Yposition Zposition Zrotation Xrotation Yrotation
                  JOINT lThumb2
                  {
                    OFFSET 0.3601 -0.878 4.2331
                    CHANNELS 6 Xposition Yposition Zposition Zrotation Xrotation Yrotation
                    JOINT lThumb2_End
                    {
                      OFFSET 1.8127 -1.216 2.2227
                      CHANNELS 6 Xposition Yposition Zposition Zrotation Xrotation Yrotation
                      End Site
                      {
                        OFFSET 0.0181 -0.0122 0.0222
                      }
                    }
                  }
                }
                JOINT lCarpal1
                {
                  OFFSET 0.9571 1.114 1.7695
                  CHANNELS 6 Xposition Yposition Zposition Zrotation Xrotation Yrotation
                  JOINT lIndex1
                  {
                    OFFSET 4.1246 0.487 4.1451
                    CHANNELS 6 Xposition Yposition Zposition Zrotation Xrotation Yrotation
                    JOINT lIndex2
                    {
                      OFFSET 3.4052 -1.454 2.7682
                      CHANNELS 6 Xposition Yposition Zposition Zrotation Xrotation Yrotation
                      JOINT lIndex2_End
                      {
                        OFFSET 1.4531 -1.795 1.2713
                        CHANNELS 6 Xposition Yposition Zposition Zrotation Xrotation Yrotation
                        End Site
                        {
                          OFFSET 0.0145 -0.0179 0.0127
                        }
                      }
                    }
                  }
                  JOINT lMid1
                  {
                    OFFSET 5.6954 0.21 2.1184
                    CHANNELS 6 Xposition Yposition Zposition Zrotation Xrotation Yrotation
                    JOINT lMid2
                    {
                      OFFSET 3.9766 -1.54 2.3863
                      CHANNELS 6 Xposition Yposition Zposition Zrotation Xrotation Yrotation
                      JOINT lMid2_End
                      {
                        OFFSET 1.4042 -1.926 1.125
                        CHANNELS 6 Xposition Yposition Zposition Zrotation Xrotation Yrotation
                        End Site
                        {
                          OFFSET 0.014 -0.0193 0.0113
                        }
                      }
                    }
                  }
                }
                JOINT lCarpal2
                {
                  OFFSET 2.0956 0.66 -0.3894
                  CHANNELS 6 Xposition Yposition Zposition Zrotation Xrotation Yrotation
                  JOINT lRing1
                  {
                    OFFSET 5.0395 -0.09 2.4971
                    CHANNELS 6 Xposition Yposition Zposition Zrotation Xrotation Yrotation
                    JOINT lRing2
                    {
                      OFFSET 3.7921 -1.552 1.4806
                      CHANNELS 6 Xposition Yposition Zposition Zrotation Xrotation Yrotation
                      JOINT lRing2_End
                      {
                        OFFSET 1.4655 -1.808 0.9609
                        CHANNELS 6 Xposition Yposition Zposition Zrotation Xrotation Yrotation
                        End Site
                        {
                          OFFSET 0.0147 -0.0181 0.0096
                        }
                      }
                    }
                  }
                  JOINT lPinky1
                  {
                    OFFSET 4.9141 -1.269 0.3591
                    CHANNELS 6 Xposition Yposition Zposition Zrotation Xrotation Yrotation
                    JOINT lPinky2
                    {
                      OFFSET 3.1477 -1.685 0.8462
                      CHANNELS 6 Xposition Yposition Zposition Zrotation Xrotation Yrotation
                      JOINT lPinky2_End
                      {
                        OFFSET 0.8055 -1.585 0.7955
                        CHANNELS 6 Xposition Yposition Zposition Zrotation Xrotation Yrotation
                        End Site
                        {
                          OFFSET 0.0081 -0.0158 0.008
                        }
                      }
                    }
                  }
                }
              }
            }
          }
        }
        JOINT rCollar
        {
          OFFSET -1.7069 20.075 5.0056
          CHANNELS 6 Xposition Yposition Zposition Zrotation Xrotation Yrotation
          JOINT rShldr
          {
            OFFSET -13.6458 -0.047 -4.849
            CHANNELS 6 Xposition Yposition Zposition Zrotation Xrotation Yrotation
            JOINT rForeArm
            {
              OFFSET -28.3255 -0.9759 2.2888
              CHANNELS 6 Xposition Yposition Zposition Zrotation Xrotation Yrotation
              JOINT rHand
              {
                OFFSET -22.1583 -0.53 10.8316
                CHANNELS 6 Xposition Yposition Zposition Zrotation Xrotation Yrotation
                JOINT rThumb1
                {
                  OFFSET -0.786 0.112 2.5817
                  CHANNELS 6 Xposition Yposition Zposition Zrotation Xrotation Yrotation
                  JOINT rThumb2
                  {
                    OFFSET -0.3601 -0.878 4.2331
                    CHANNELS 6 Xposition Yposition Zposition Zrotation Xrotation Yrotation
                    JOINT rThumb2_End
                    {
                      OFFSET -1.8127 -1.216 2.2227
                      CHANNELS 6 Xposition Yposition Zposition Zrotation Xrotation Yrotation
                      End Site
                      {
                        OFFSET -0.0181 -0.0122 0.0222
                      }
                    }
                  }
                }
                JOINT rCarpal1
                {
                  OFFSET -0.9571 1.114 1.7695
                  CHANNELS 6 Xposition Yposition Zposition Zrotation Xrotation Yrotation
                  JOINT rIndex1
                  {
                    OFFSET -4.1246 0.487 4.1451
                    CHANNELS 6 Xposition Yposition Zposition Zrotation Xrotation Yrotation
                    JOINT rIndex2
                    {
                      OFFSET -3.4052 -1.454 2.7682
                      CHANNELS 6 Xposition Yposition Zposition Zrotation Xrotation Yrotation
                      JOINT rIndex2_End
                      {
                        OFFSET -1.4531 -1.795 1.2713
                        CHANNELS 6 Xposition Yposition Zposition Zrotation Xrotation Yrotation
                        End Site
                        {
                          OFFSET -0.0145 -0.018 0.0127
                        }
                      }
                    }
                  }
                  JOINT rMid1
                  {
                    OFFSET -5.6954 0.21 2.1184
                    CHANNELS 6 Xposition Yposition Zposition Zrotation Xrotation Yrotation
                    JOINT rMid2
                    {
                      OFFSET -3.9766 -1.54 2.3863
                      CHANNELS 6 Xposition Yposition Zposition Zrotation Xrotation Yrotation
                      JOINT rMid2_End
                      {
                        OFFSET -1.4042 -1.926 1.125
                        CHANNELS 6 Xposition Yposition Zposition Zrotation Xrotation Yrotation
                        End Site
                        {
                          OFFSET -0.014 -0.0193 0.0113
                        }
                      }
                    }
                  }
                }
                JOINT rCarpal2
                {
                  OFFSET -2.0956 0.66 -0.3894
                  CHANNELS 6 Xposition Yposition Zposition Zrotation Xrotation Yrotation
                  JOINT rRing1
                  {
                    OFFSET -5.0395 -0.09 2.4971
                    CHANNELS 6 Xposition Yposition Zposition Zrotation Xrotation Yrotation
                    JOINT rRing2
                    {
                      OFFSET -3.7921 -1.552 1.4806
                      CHANNELS 6 Xposition Yposition Zposition Zrotation Xrotation Yrotation
                      JOINT rRing2_End
                      {
                        OFFSET -1.4655 -1.808 0.9609
                        CHANNELS 6 Xposition Yposition Zposition Zrotation Xrotation Yrotation
                        End Site
                        {
                          OFFSET -0.0147 -0.0181 0.0096
                        }
                      }
                    }
                  }
                  JOINT rPinky1
                  {
                    OFFSET -4.9141 -1.269 0.3592
                    CHANNELS 6 Xposition Yposition Zposition Zrotation Xrotation Yrotation
                    JOINT rPinky2
                    {
                      OFFSET -3.1477 -1.685 0.8462
                      CHANNELS 6 Xposition Yposition Zposition Zrotation Xrotation Yrotation
                      JOINT rPinky2_End
                      {
                        OFFSET -0.8055 -1.585 0.7955
                        CHANNELS 6 Xposition Yposition Zposition Zrotation Xrotation Yrotation
                        End Site
                        {
                          OFFSET -0.0081 -0.0158 0.008
                        }
                      }
                    }
                  }
                }
              }
            }
          }
        }
      }
    }
  }
  JOINT lThigh
  {
    OFFSET 8.367 -8.2066 0.5982
    CHANNELS 6 Xposition Yposition Zposition Zrotation Xrotation Yrotation
    JOINT lShin
    {
      OFFSET 2.1923 -43.463 -0.4932
      CHANNELS 6 Xposition Yposition Zposition Zrotation Xrotation Yrotation
      JOINT lFoot
      {
        OFFSET 0.7333 -45.8593 -2.6451
        CHANNELS 6 Xposition Yposition Zposition Zrotation Xrotation Yrotation
        End Site
        {
          OFFSET 2.6618 -4.2699 12.3931
        }
      }
    }
  }
  JOINT rThigh
  {
    OFFSET -8.367 -8.2066 0.5982
    CHANNELS 6 Xposition Yposition Zposition Zrotation Xrotation Yrotation
    JOINT rShin
    {
      OFFSET -2.1923 -43.463 -0.4931
      CHANNELS 6 Xposition Yposition Zposition Zrotation Xrotation Yrotation
      JOINT rFoot
      {
        OFFSET -0.7333 -45.8593 -2.6451
        CHANNELS 6 Xposition Yposition Zposition Zrotation Xrotation Yrotation
        End Site
        {
          OFFSET -2.6618 -4.2699 12.3931
        }
      }
    }
  }
}
MOTION
Frames:	4
Frame Time:	0.0333333
0 90.174 2.4664 0 0 -0 0 -1.186 -1.5018 0 0 -0 0 9.964 0.2134 0 0 -0 0 13.134 -3.2573 0 0 -0 0 20.686 -1.6905 0 0 -0 0 7.238 -0.1237 0 0 -0 1.7069 20.075 5.0056 0 0 -0 13.6458 -0.047 -4.849 1.66051 0.0835086 5.75766 28.3255 -0.9759 2.2888 -0.0175111 0.895433 15.7816 22.1583 -0.53 10.8316 7.95139e-016 -1.98785e-016 -0 0.786 0.112 2.5817 5.46658e-016 -3.97569e-016 -0 0.3601 -0.878 4.2331 5.96354e-016 0 -0 1.8127 -1.216 2.2227 3.97569e-016 1.98785e-016 9.54166e-015 0.9571 1.114 1.7695 1.49089e-016 -3.97569e-016 -0 4.1246 0.487 4.1451 6.4605e-016 0 3.18055e-015 3.4052 -1.454 2.7682 5.96354e-016 0 3.18055e-015 1.4531 -1.795 1.2713 8.94531e-016 -1.98785e-016 6.36111e-015 5.6954 0.21 2.1184 6.4605e-016 0 3.18055e-015 3.9766 -1.54 2.3863 5.96354e-016 0 3.18055e-015 1.4042 -1.926 1.125 8.94531e-016 -1.98785e-016 6.36111e-015 2.0956 0.66 -0.3894 1.49089e-016 -3.97569e-016 -0 5.0395 -0.09 2.4971 6.4605e-016 0 3.18055e-015 3.7921 -1.552 1.4806 5.96354e-016 0 3.18055e-015 1.4655 -1.808 0.9609 8.94531e-016 -1.98785e-016 6.36111e-015 4.9141 -1.269 0.3591 6.4605e-016 0 3.18055e-015 3.1477 -1.685 0.8462 5.96354e-016 0 3.18055e-015 0.8055 -1.585 0.7955 8.94531e-016 -1.98785e-016 6.36111e-015 -1.7069 20.075 5.0056 0 0 -0 -13.6458 -0.047 -4.849 -1.4496 0.0636048 -5.0245 -28.3255 -0.9759 2.2888 -1.74811 1.20616 -16.8394 -22.1583 -0.53 10.8316 -1.19271e-015 1.98785e-016 -3.18055e-015 -0.786 0.112 2.5817 -3.97569e-016 1.98785e-016 -3.18055e-015 -0.3601 -0.878 4.2331 -2.98177e-016 1.98785e-016 -3.18055e-015 -1.8127 -1.216 2.2227 -2.98177e-016 3.97569e-016 -0 -0.9571 1.114 1.7695 4.96962e-016 0 -6.36111e-015 -4.1246 0.487 4.1451 -9.93923e-017 3.97569e-016 -0 -3.4052 -1.454 2.7682 -8.94531e-016 5.96354e-016 -0 -1.4531 -1.795 1.2713 -3.97569e-016 3.97569e-016 -0 -5.6954 0.21 2.1184 -9.93923e-017 3.97569e-016 -0 -3.9766 -1.54 2.3863 -8.94531e-016 5.96354e-016 -0 -1.4042 -1.926 1.125 -3.97569e-016 3.97569e-016 -0 -2.0956 0.66 -0.3894 4.96962e-016 0 -6.36111e-015 -5.0395 -0.09 2.4971 -9.93923e-017 3.97569e-016 -0 -3.7921 -1.552 1.4806 -8.94531e-016 5.96354e-016 -0 -1.4655 -1.808 0.9609 -3.97569e-016 3.97569e-016 -0 -4.9141 -1.269 0.3592 -9.93923e-017 3.97569e-016 -0 -3.1477 -1.685 0.8462 -8.94531e-016 5.96354e-016 -0 -0.8055 -1.585 0.7955 -3.97569e-016 3.97569e-016 -0 8.367 -8.2066 0.5982 -4.66115 -1.03232 0.120763 2.1923 -43.463 -0.4932 0.00990601 1.55097 0.177175 0.7333 -45.8593 -2.6451 4.65196 -0.54114 -0.255042 -8.367 -8.2066 0.5982 4.66115 -1.03222 -0.120763 -2.1923 -43.463 -0.4931 -0.00990459 1.5509 -0.177176 -0.7333 -45.8593 -2.6451 -4.65196 -0.541171 0.255041 
-4.03493 41.8582 6.46108 0.0515834 24.0028 -178.25 4.44089e-016 -1.186 -1.5018 -1.6499 1.26157 -1.27559 8.88178e-016 9.964 0.2134 -3.27252 2.55906 -2.51525 -2.22045e-016 13.134 -3.2573 -3.27252 2.55906 -2.51526 0 20.686 -1.6905 -5.94884e-006 -0.000121228 1.33747e-005 -4.44089e-016 7.238 -0.1237 -8.40368e-007 -4.73089e-008 1.32393e-007 1.7069 20.075 5.0056 -25.6393 -7.43892 -3.9502 13.6458 -0.047 -4.849 -11.3792 -21.1175 -23.3685 28.3255 -0.9759 2.2888 -30.2336 24.4798 -53.8259 22.1583 -0.53 10.8316 -42.1773 -13.0292 34.6201 0.786 0.112 2.5817 2.65545e-007 -2.36872e-007 -2.35084e-007 0.3601 -0.878 4.2331 1.32772e-006 -1.18436e-006 -1.17542e-006 1.8127 -1.216 2.2227 2.65545e-007 -2.36872e-007 -2.35084e-007 0.9571 1.114 1.7695 -1.27222e-014 1.59028e-015 -3.18055e-015 4.1246 0.487 4.1451 2.65545e-007 -2.36872e-007 -2.35084e-007 3.4052 -1.454 2.7682 1.32772e-006 -1.18436e-006 -1.17542e-006 1.4531 -1.795 1.2713 2.65545e-007 -2.36872e-007 -2.35084e-007 5.6954 0.21 2.1184 2.65545e-007 -2.36872e-007 -2.35084e-007 3.9766 -1.54 2.3863 1.32772e-006 -1.18436e-006 -1.17542e-006 1.4042 -1.926 1.125 2.65545e-007 -2.36872e-007 -2.35084e-007 2.0956 0.66 -0.3894 -1.27222e-014 1.59028e-015 -3.18055e-015 5.0395 -0.09 2.4971 2.65545e-007 -2.36872e-007 -2.35084e-007 3.7921 -1.552 1.4806 1.32772e-006 -1.18436e-006 -1.17542e-006 1.4655 -1.808 0.9609 2.65545e-007 -2.36872e-007 -2.35084e-007 4.9141 -1.269 0.3591 2.65545e-007 -2.36872e-007 -2.35084e-007 3.1477 -1.685 0.8462 1.32772e-006 -1.18436e-006 -1.17542e-006 0.8055 -1.585 0.7955 2.65545e-007 -2.36872e-007 -2.35084e-007 -1.7069 20.075 5.0056 17.273 -8.20597 0.902737 -13.6458 -0.047 -4.849 15.2587 -15.8984 42.0235 -28.3255 -0.9759 2.2888 21.8791 19.4882 64.5588 -22.1583 -0.53 10.8316 34.4103 -23.7991 0.62582 -0.786 0.112 2.5817 1.36265e-006 8.16583e-007 -5.98123e-007 -0.3601 -0.878 4.2331 1.52905e-006 2.00381e-006 -3.92155e-006 -1.8127 -1.216 2.2227 7.23239e-007 2.80097e-006 7.11425e-007 -0.9571 1.114 1.7695 0 4.77083e-015 -0 -4.1246 0.487 4.1451 1.36265e-006 8.16583e-007 -5.98123e-007 -3.4052 -1.454 2.7682 1.52905e-006 2.00381e-006 -3.92155e-006 -1.4531 -1.795 1.2713 7.23239e-007 2.80097e-006 7.11425e-007 -5.6954 0.21 2.1184 1.36265e-006 8.16583e-007 -5.98123e-007 -3.9766 -1.54 2.3863 1.52905e-006 2.00381e-006 -3.92155e-006 -1.4042 -1.926 1.125 7.23239e-007 2.80097e-006 7.11425e-007 -2.0956 0.66 -0.3894 0 4.77083e-015 -0 -5.0395 -0.09 2.4971 1.36265e-006 8.16583e-007 -5.98123e-007 -3.7921 -1.552 1.4806 1.52905e-006 2.00381e-006 -3.92155e-006 -1.4655 -1.808 0.9609 7.23239e-007 2.80097e-006 7.11425e-007 -4.9141 -1.269 0.3592 1.36265e-006 8.16583e-007 -5.98123e-007 -3.1477 -1.685 0.8462 1.52905e-006 2.00381e-006 -3.92155e-006 -0.8055 -1.585 0.7955 7.23239e-007 2.80097e-006 7.11425e-007 8.367 -8.2066 0.5982 116.235 -50.0116 87.2 2.1923 -43.463 -0.4932 175.457 64.1542 139.54 0.7333 -45.8593 -2.6451 13.4932 17.7507 26.0123 -8.367 -8.2066 0.5982 -7.66533 20.5996 -2.77613 -2.1923 -43.463 -0.4931 107.807 86.5927 -69.1566 -0.7333 -45.8593 -2.6451 13.2692 55.8015 -49.8061 
-4.02764 41.6696 6.67505 0.053468 25.0541 -178.246 -8.88178e-016 -1.186 -1.5018 -1.61901 1.79189 -1.28522 0 9.964 0.2134 -3.19977 3.61894 -2.52115 4.44089e-016 13.134 -3.2573 -3.19976 3.61895 -2.52114 2.22045e-015 20.686 -1.6905 -0.20121 -0.115382 -0.152279 -4.44089e-016 7.238 -0.1237 5.97392e-008 -0.308047 2.2039e-006 1.7069 20.075 5.0056 -24.865 -8.51026 -5.112 13.6458 -0.047 -4.849 -11.3792 -21.1175 -23.3685 28.3255 -0.9759 2.2888 -29.9176 23.624 -52.3587 22.1583 -0.53 10.8316 -42.8807 -12.6719 33.1738 0.786 0.112 2.5817 5.30143e-007 -4.74097e-007 -4.70779e-007 0.3601 -0.878 4.2331 1.59043e-006 -1.42229e-006 -1.41234e-006 1.8127 -1.216 2.2227 1.06029e-006 -9.48194e-007 -9.41559e-007 0.9571 1.114 1.7695 -1.32417e-031 1.59028e-015 4.77083e-015 4.1246 0.487 4.1451 5.30143e-007 -4.74097e-007 -4.70779e-007 3.4052 -1.454 2.7682 1.59043e-006 -1.42229e-006 -1.41234e-006 1.4531 -1.795 1.2713 1.06029e-006 -9.48194e-007 -9.41559e-007 5.6954 0.21 2.1184 5.30143e-007 -4.74097e-007 -4.70779e-007 3.9766 -1.54 2.3863 1.59043e-006 -1.42229e-006 -1.41234e-006 1.4042 -1.926 1.125 1.06029e-006 -9.48194e-007 -9.41559e-007 2.0956 0.66 -0.3894 -1.32417e-031 1.59028e-015 4.77083e-015 5.0395 -0.09 2.4971 5.30143e-007 -4.74097e-007 -4.70779e-007 3.7921 -1.552 1.4806 1.59043e-006 -1.42229e-006 -1.41234e-006 1.4655 -1.808 0.9609 1.06029e-006 -9.48194e-007 -9.41559e-007 4.9141 -1.269 0.3591 5.30143e-007 -4.74097e-007 -4.70779e-007 3.1477 -1.685 0.8462 1.59043e-006 -1.42229e-006 -1.41234e-006 0.8055 -1.585 0.7955 1.06029e-006 -9.48194e-007 -9.41559e-007 -1.7069 20.075 5.0056 16.7071 -9.81959 1.73399 -13.6458 -0.047 -4.849 15.2587 -15.8984 42.0235 -28.3255 -0.9759 2.2888 21.8171 19.206 63.9087 -22.1583 -0.53 10.8316 34.6582 -24.0197 1.09963 -0.786 0.112 2.5817 3.18055e-015 -6.36111e-015 4.77083e-015 -0.3601 -0.878 4.2331 -6.36111e-015 3.18055e-015 -6.36111e-015 -1.8127 -1.216 2.2227 6.36111e-015 -1.11319e-014 -1.59028e-015 -0.9571 1.114 1.7695 -0 0 4.77083e-015 -4.1246 0.487 4.1451 -6.36111e-015 -1.43125e-014 3.18055e-015 -3.4052 -1.454 2.7682 0 0 -0 -1.4531 -1.795 1.2713 -0 -4.77083e-015 -0 -5.6954 0.21 2.1184 -6.36111e-015 -1.43125e-014 3.18055e-015 -3.9766 -1.54 2.3863 0 0 -0 -1.4042 -1.926 1.125 -0 -4.77083e-015 -0 -2.0956 0.66 -0.3894 -0 0 4.77083e-015 -5.0395 -0.09 2.4971 -6.36111e-015 -1.43125e-014 3.18055e-015 -3.7921 -1.552 1.4806 0 0 -0 -1.4655 -1.808 0.9609 -0 -4.77083e-015 -0 -4.9141 -1.269 0.3592 -6.36111e-015 -1.43125e-014 3.18055e-015 -3.1477 -1.685 0.8462 0 0 -0 -0.8055 -1.585 0.7955 -0 -4.77083e-015 -0 8.367 -8.2066 0.5982 115.67 -49.7519 86.629 2.1923 -43.463 -0.4932 175.453 64.1631 139.571 0.7333 -45.8593 -2.6451 12.2661 20.2449 26.5091 -8.367 -8.2066 0.5982 -7.79865 21.5041 -2.67863 -2.1923 -43.463 -0.4931 111.804 86.5362 -73.1807 -0.7333 -45.8593 -2.6451 13.2889 55.812 -49.8346 
-4.02033 41.4794 6.88945 0.0552951 26.1069 -178.243 8.88178e-016 -1.186 -1.5018 -1.58715 2.32696 -1.29482 0 9.964 0.2134 -3.12516 4.68836 -2.52776 0 13.134 -3.2573 -3.12516 4.68836 -2.52776 8.88178e-016 20.686 -1.6905 -0.402804 -0.230587 -0.304972 -8.88178e-016 7.238 -0.1237 -2.87576e-007 -0.616245 8.90567e-007 1.7069 20.075 5.0056 -24.1078 -9.60094 -6.26663 13.6458 -0.047 -4.849 -11.3792 -21.1175 -23.3685 28.3255 -0.9759 2.2888 -29.5785 22.7724 -50.8898 22.1583 -0.53 10.8316 -43.5756 -12.2965 31.7301 0.786 0.112 2.5817 5.29263e-007 -4.7441e-007 -4.71355e-007 0.3601 -0.878 4.2331 -3.98305e-006 4.5623e-006 -7.55803e-006 1.8127 -1.216 2.2227 1.58779e-006 -1.42323e-006 -1.41406e-006 0.9571 1.114 1.7695 -1.32417e-031 4.77083e-015 1.59028e-015 4.1246 0.487 4.1451 5.29263e-007 -4.7441e-007 -4.71355e-007 3.4052 -1.454 2.7682 -3.98305e-006 4.5623e-006 -7.55803e-006 1.4531 -1.795 1.2713 1.58779e-006 -1.42323e-006 -1.41406e-006 5.6954 0.21 2.1184 5.29263e-007 -4.7441e-007 -4.71355e-007 3.9766 -1.54 2.3863 -3.98305e-006 4.5623e-006 -7.55803e-006 1.4042 -1.926 1.125 1.58779e-006 -1.42323e-006 -1.41406e-006 2.0956 0.66 -0.3894 -1.32417e-031 4.77083e-015 1.59028e-015 5.0395 -0.09 2.4971 5.29263e-007 -4.7441e-007 -4.71355e-007 3.7921 -1.552 1.4806 -3.98305e-006 4.5623e-006 -7.55803e-006 1.4655 -1.808 0.9609 1.58779e-006 -1.42323e-006 -1.41406e-006 4.9141 -1.269 0.3591 5.29263e-007 -4.7441e-007 -4.71355e-007 3.1477 -1.685 0.8462 -3.98305e-006 4.5623e-006 -7.55803e-006 0.8055 -1.585 0.7955 1.58779e-006 -1.42323e-006 -1.41406e-006 -1.7069 20.075 5.0056 16.1598 -11.4488 2.55728 -13.6458 -0.047 -4.849 15.2587 -15.8984 42.0235 -28.3255 -0.9759 2.2888 21.7518 18.9242 63.259 -22.1583 -0.53 10.8316 34.9086 -24.2385 1.57542 -0.786 0.112 2.5817 2.71946e-006 1.64233e-006 -1.19783e-006 -0.3601 -0.878 4.2331 1.35973e-006 8.21166e-007 -5.98916e-007 -1.8127 -1.216 2.2227 1.35973e-006 8.21166e-007 -5.98916e-007 -0.9571 1.114 1.7695 -3.18055e-015 9.54166e-015 -4.77083e-015 -4.1246 0.487 4.1451 2.71946e-006 1.64233e-006 -1.19783e-006 -3.4052 -1.454 2.7682 1.35973e-006 8.21166e-007 -5.98916e-007 -1.4531 -1.795 1.2713 1.35973e-006 8.21166e-007 -5.98916e-007 -5.6954 0.21 2.1184 2.71946e-006 1.64233e-006 -1.19783e-006 -3.9766 -1.54 2.3863 1.35973e-006 8.21166e-007 -5.98916e-007 -1.4042 -1.926 1.125 1.35973e-006 8.21166e-007 -5.98916e-007 -2.0956 0.66 -0.3894 -3.18055e-015 9.54166e-015 -4.77083e-015 -5.0395 -0.09 2.4971 2.71946e-006 1.64233e-006 -1.19783e-006 -3.7921 -1.552 1.4806 1.35973e-006 8.21166e-007 -5.98916e-007 -1.4655 -1.808 0.9609 1.35973e-006 8.21166e-007 -5.98916e-007 -4.9141 -1.269 0.3592 2.71946e-006 1.64233e-006 -1.19783e-006 -3.1477 -1.685 0.8462 1.35973e-006 8.21166e-007 -5.98916e-007 -0.8055 -1.585 0.7955 1.35973e-006 8.21166e-007 -5.98916e-007 8.367 -8.2066 0.5982 115.112 -49.4887 86.0653 2.1923 -43.463 -0.4932 175.448 64.1713 139.602 0.7333 -45.8593 -2.6451 10.9882 22.748 27.0749 -8.367 -8.2066 0.5982 -7.93536 22.4089 -2.57802 -2.1923 -43.463 -0.4931 115.658 86.4633 -77.063 -0.7333 -45.8593 -2.6451 13.3091 55.8225 -49.8633 
